<svg width="24" height="24" viewBox="0 0 24 24" fill="none" xmlns="http://www.w3.org/2000/svg">
<path d="M11.9865 20.9493L11.9485 21.0418C11.8546 21.0032 11.7693 20.9466 11.6974 20.8752L4.2164 13.46L11.9865 20.9493ZM11.9865 20.9493L11.9485 21.0418C12.0424 21.0803 12.143 21.1001 12.2445 21.1M11.9865 20.9493L20.2842 13.4607M20.2842 13.4607L20.2841 13.4607L12.7911 20.876C12.7192 20.9472 12.6339 21.0035 12.5401 21.042C12.4464 21.0804 12.3459 21.1001 12.2445 21.1M20.2842 13.4607C21.74 12.0189 22.353 10.4156 22.35 8.89938C22.347 7.38483 21.7292 5.96511 20.7377 4.8881C18.7667 2.74723 15.3104 1.95393 12.2449 4.45113M20.2842 13.4607L12.2449 4.45113M12.2445 21.1C12.2445 21.1 12.2445 21.1 12.2444 21.1L12.2445 21L12.2446 21.1C12.2446 21.1 12.2446 21.1 12.2445 21.1ZM12.2449 4.45113C9.18223 1.9528 5.72874 2.74733 3.75986 4.889C2.76938 5.96641 2.15251 7.38641 2.15001 8.9008C2.1475 10.4168 2.76072 12.0195 4.21634 13.46L12.2449 4.45113ZM11.6944 6.0304L11.6943 6.03047L11.6976 6.03368C11.8428 6.17742 12.0394 6.25805 12.2442 6.25818C12.4489 6.2583 12.6455 6.17801 12.7908 6.03462C13.9702 4.88632 15.246 4.42454 16.4216 4.44267C17.5987 4.46083 18.6832 4.96026 19.4783 5.74838C20.2734 6.53649 20.777 7.61097 20.7953 8.77677C20.8136 9.94092 20.3482 11.2048 19.19 12.3735C19.1898 12.3736 19.1897 12.3737 19.1896 12.3738L12.2449 19.2464L5.3115 12.3744C5.31139 12.3743 5.31127 12.3741 5.31116 12.374C3.61621 10.6645 3.37636 8.72192 4.03143 7.19051C4.68793 5.65576 6.24863 4.52007 8.18635 4.43801C8.84841 4.4568 9.49989 4.60723 10.1021 4.88036C10.7054 5.15397 11.2469 5.5451 11.6944 6.0304Z" fill="#005BAA" stroke="#005BAA" stroke-width="0.2"/>
</svg>
