<svg width="80" height="48" viewBox="0 0 80 48" fill="none" xmlns="http://www.w3.org/2000/svg">
<path d="M60.448 29.0328L75.6275 16.3608L76.9339 17.9223L61.7544 30.5943L60.448 29.0328Z" fill="url(#paint0_linear_280_60)"/>
<path d="M1.00903 14.1004V0.724121H3.95529V6.01459H9.38864V0.724121H12.3349V14.1004H9.38864V8.73353H3.95529V14.1004H1.00903Z" fill="#005BAA"/>
<path d="M26.1205 12.3153C24.7649 13.6584 23.0649 14.33 21.0206 14.33C18.9817 14.33 17.2872 13.6639 15.9425 12.3262C14.5979 10.9886 13.9255 9.35069 13.9255 7.41795C13.9255 5.49613 14.6033 3.85822 15.9644 2.51512C17.32 1.17203 19.02 0.500488 21.0643 0.500488C23.1032 0.500488 24.7977 1.16657 26.1424 2.5042C27.4871 3.84184 28.1594 5.47975 28.1594 7.41249C28.1594 9.33978 27.4816 10.9722 26.1205 12.3153ZM18.1563 10.3935C18.9216 11.207 19.8891 11.6165 21.0643 11.6165C22.2396 11.6165 23.2016 11.2125 23.9505 10.4044C24.7048 9.59638 25.0765 8.59725 25.0765 7.41249C25.0765 6.23865 24.6939 5.24498 23.9286 4.43148C23.1633 3.61799 22.1958 3.20851 21.0206 3.20851C19.8454 3.20851 18.8833 3.61253 18.1345 4.42057C17.3801 5.22861 17.0084 6.22773 17.0084 7.41249C17.0084 8.58633 17.3911 9.58 18.1563 10.3935Z" fill="#005BAA"/>
<path d="M29.8703 14.1004V0.724121H36.0853C37.6268 0.724121 38.7965 1.11722 39.5837 1.90888C40.1959 2.52037 40.502 3.29019 40.502 4.21834C40.502 5.47954 39.9171 6.44045 38.7419 7.10107C39.5727 7.41774 40.1959 7.83813 40.6168 8.35135C41.0376 8.86456 41.2454 9.55795 41.2454 10.426C41.2454 11.6217 40.7971 12.5335 39.9062 13.1559C39.0152 13.7783 37.7908 14.0895 36.2329 14.0895H29.8703V14.1004ZM32.74 6.1347H35.4567C36.8724 6.1347 37.5776 5.64879 37.5776 4.68242C37.5776 4.23472 37.4136 3.89622 37.0802 3.66145C36.7467 3.42668 36.2712 3.30657 35.648 3.30657H32.74V6.1347ZM32.74 11.5234H36.2384C37.6268 11.5234 38.321 11.0266 38.321 10.0329C38.321 9.06657 37.594 8.58066 36.14 8.58066H32.7346V11.5234H32.74Z" fill="#005BAA"/>
<path d="M54.3259 0.72998V14.1063H51.4179V5.33798L45.5636 14.1063H42.7923V0.72998H45.7003V9.50375L51.5873 0.72998H54.3259Z" fill="#005BAA"/>
<path d="M1.00903 30.4085V17.0322H3.95529V22.8796L9.38864 17.0322H12.9471L7.49735 22.7049L13.1985 30.4031H9.66195L5.50767 24.7141L3.96075 26.3192V30.4085H1.00903Z" fill="#005BAA"/>
<path d="M24.8196 28.6234C23.464 29.9665 21.764 30.6381 19.7197 30.6381C17.6808 30.6381 15.9863 29.972 14.6416 28.6343C13.2969 27.2967 12.6246 25.6588 12.6246 23.7261C12.6246 21.8042 13.3024 20.1663 14.6635 18.8232C16.0191 17.4801 17.7191 16.8086 19.7634 16.8086C21.8023 16.8086 23.4968 17.4747 24.8414 18.8123C26.1861 20.1499 26.8585 21.7879 26.8585 23.7206C26.8585 25.6424 26.1807 27.2803 24.8196 28.6234ZM16.8499 26.7016C17.6152 27.5151 18.5827 27.9246 19.7579 27.9246C20.9331 27.9246 21.8952 27.5206 22.6441 26.7125C23.3984 25.9045 23.7701 24.9054 23.7701 23.7206C23.7701 22.5468 23.3875 21.5531 22.6222 20.7396C21.8569 19.9261 20.8894 19.5166 19.7142 19.5166C18.539 19.5166 17.5769 19.9206 16.8281 20.7287C16.0737 21.5367 15.702 22.5358 15.702 23.7206C15.7075 24.8944 16.0901 25.8881 16.8499 26.7016Z" fill="#005BAA"/>
<path d="M28.4601 30.4085V17.0322H31.6359L35.1561 22.6885L38.6763 17.0322H41.8521V30.4085H38.9277V21.6784L35.1616 27.3893H35.085L31.3462 21.733V30.4085H28.4601Z" fill="#005BAA"/>
<path d="M3.95529 36.0431V38.3744H7.49189C8.98415 38.3744 10.143 38.7456 10.9629 39.4936C11.7883 40.2361 12.1982 41.2462 12.1982 42.5238C12.1982 43.8723 11.7555 44.9206 10.8809 45.6576C10.0008 46.3947 8.77643 46.766 7.20765 46.766H1.00903V33.3896H11.2799V36.0431H3.95529ZM7.19125 40.8203H3.96075V44.1071H7.21311C8.57965 44.1071 9.25745 43.5393 9.25745 42.4091C9.25745 41.3499 8.56872 40.8203 7.19125 40.8203Z" fill="#005BAA"/>
<path d="M12.6465 46.7606L18.3859 33.2915H21.1026L26.842 46.7606H23.7646L22.5402 43.7632H16.8718L15.6474 46.7606H12.6465ZM17.9213 41.1644H21.4798L19.7033 36.8294L17.9213 41.1644Z" fill="#005BAA"/>
<path d="M28.4601 46.7606V33.3843H31.4063V38.6747H36.8397V33.3843H39.7859V46.7606H36.8397V41.3937H31.4063V46.7606H28.4601Z" fill="#005BAA"/>
<path d="M42.1418 46.7606V33.3843H45.0881V39.2316L50.5214 33.3843H54.0799L48.6301 39.0569L54.3313 46.7551H50.7947L46.6459 41.0606L45.099 42.6658V46.7551H42.1418V46.7606Z" fill="#005BAA"/>
<path d="M62.6727 1.15011C63.5035 1.15011 64.1977 1.25385 64.7498 1.46131C65.2964 1.66878 65.8103 2.00183 66.2858 2.46044C67.2697 3.41044 67.7671 4.97737 67.7671 7.11212C67.7671 9.1486 67.2807 10.7974 66.3241 12.004C65.3675 13.2106 64.0447 13.8003 62.2846 13.8003C60.8033 13.8003 59.4641 13.358 58.3107 12.4899L59.5515 10.7538C60.4644 11.4089 61.41 11.742 62.3611 11.742C63.2029 11.742 63.8807 11.4526 64.3781 10.8793C64.8591 10.3279 65.1543 9.57446 65.2582 8.64631L65.3238 8.0512L64.8646 8.43338C64.2141 8.97389 63.3724 9.24688 62.3611 9.24688C60.9946 9.24688 59.8959 8.89745 59.1033 8.20953C58.3107 7.5216 57.9226 6.58799 57.9226 5.3541C57.9226 4.13112 58.3544 3.14837 59.2399 2.35125C60.1091 1.55413 61.2679 1.15011 62.6727 1.15011ZM62.8203 6.9265C63.4544 6.9265 63.9572 6.76816 64.3071 6.4515C64.6569 6.14029 64.8264 5.74173 64.8264 5.2449C64.8264 4.74261 64.6514 4.34405 64.2907 4.02738C63.9244 3.70526 63.4106 3.54147 62.7656 3.54147C62.1315 3.54147 61.6341 3.6998 61.2898 4.01646C60.9454 4.32767 60.7814 4.73715 60.7814 5.26128C60.7814 5.75811 60.9563 6.15121 61.3171 6.45696C61.6779 6.76816 62.1862 6.9265 62.8203 6.9265ZM62.6727 0.686035C61.1476 0.686035 59.885 1.12827 58.9174 2.00183C57.9281 2.89722 57.4471 3.98916 57.4471 5.34863C57.4471 6.72448 57.8843 7.77275 58.7863 8.55349C59.6663 9.31785 60.8634 9.70549 62.3502 9.70549C63.2521 9.70549 64.0447 9.50348 64.7006 9.10492C64.5694 9.70003 64.3399 10.1914 64.0174 10.5681C63.6074 11.0431 63.0663 11.2724 62.3557 11.2724C61.5029 11.2724 60.6502 10.9667 59.8139 10.3716L59.4367 10.0986L59.1634 10.4753L57.9226 12.2115L57.6602 12.5773L58.021 12.8503C59.2618 13.7839 60.6939 14.2589 62.2791 14.2589C64.1923 14.2589 65.6299 13.6147 66.6848 12.2879C67.7125 10.994 68.2318 9.25233 68.2318 7.10666C68.2318 4.84088 67.6851 3.16475 66.6083 2.12194C66.089 1.61965 65.5206 1.24838 64.9138 1.01908C64.3125 0.800688 63.5582 0.686035 62.6727 0.686035ZM61.6341 6.11845L61.6123 6.10208C61.3553 5.88369 61.2406 5.62708 61.2406 5.26128C61.2406 4.86818 61.3554 4.57882 61.6013 4.36043C61.8582 4.12566 62.2518 4.00554 62.7656 4.00554C63.2958 4.00554 63.7058 4.13112 63.9846 4.37135C64.2469 4.60065 64.3617 4.86818 64.3617 5.23944C64.3617 5.6107 64.2469 5.87823 63.9955 6.10208C63.7331 6.33684 63.3341 6.45696 62.8203 6.45696C62.3119 6.46242 61.9129 6.34776 61.6341 6.11845Z" fill="#005BAA"/>
<path d="M79.2023 1.30832V3.06089L75.2175 6.38585L76.0976 6.47321C78.3223 6.84447 79.41 7.94187 79.41 9.82548C79.41 10.9884 79.0165 11.9056 78.2075 12.6427C77.404 13.3688 76.2998 13.7401 74.9333 13.7401C72.9709 13.7401 71.3693 13.0904 70.1668 11.8128L71.8886 10.3769C72.8069 11.2668 73.84 11.72 74.9715 11.72C75.5728 11.72 76.0757 11.5562 76.4638 11.2395C76.8628 10.9065 77.0651 10.4588 77.0651 9.90191C77.0651 9.29589 76.8027 8.82635 76.2779 8.49877C75.7915 8.19848 75.1136 8.04561 74.2609 8.04561H72.8561V6.42953L76.6988 3.22468H70.8337V1.30832H79.2023ZM79.6724 0.844238H79.2078H70.8337H70.369V1.30832V3.22468V3.68875H70.8337H75.4143L72.5555 6.07465L72.386 6.2166V6.43499V8.05107V8.51515H72.8507H74.2555C75.0207 8.51515 75.6165 8.64618 76.0265 8.89733C76.4146 9.13755 76.595 9.45968 76.595 9.90191C76.595 10.3169 76.4529 10.639 76.1632 10.8792C75.8625 11.1304 75.4635 11.2559 74.9661 11.2559C73.9658 11.2559 73.0365 10.8464 72.2111 10.0439L71.9105 9.7545L71.588 10.022L69.8661 11.4579L69.489 11.7746L69.8279 12.1349C71.1234 13.5108 72.8397 14.2096 74.9333 14.2096C76.4201 14.2096 77.6281 13.8002 78.5191 12.9921C79.4319 12.1677 79.8747 11.1304 79.8747 9.83094C79.8747 7.7617 78.6885 6.48959 76.349 6.05281L79.503 3.42123L79.6724 3.27927V3.06089V1.30832V0.844238Z" fill="#005BAA"/>
<path d="M62.7601 33.761C64.0556 33.761 65.1106 34.1049 65.8868 34.7819C66.663 35.4589 67.0456 36.3434 67.0456 37.4845C67.0456 38.1342 66.9144 38.7238 66.6575 39.2425C66.3951 39.7666 66.0508 40.2307 65.6353 40.6293C65.209 41.0388 64.553 41.5738 63.6894 42.2181L60.9727 44.2491H67.1768V46.1873H57.939V44.3255L62.219 40.9241C63.1045 40.2143 63.7003 39.6575 64.0392 39.2207C64.3945 38.7621 64.5804 38.2434 64.5804 37.681C64.5804 37.0914 64.389 36.6218 64.0119 36.2833C63.6402 35.9558 63.1592 35.7865 62.5743 35.7865C62.0386 35.7865 61.5521 35.9339 61.1203 36.2178C60.7486 36.4635 60.3222 36.8621 59.8576 37.4026L58.2014 36.1086C58.8245 35.3224 59.4641 34.7382 60.1145 34.3561C60.8033 33.9684 61.6942 33.761 62.7601 33.761ZM62.7601 33.2969C61.6122 33.2969 60.6447 33.5207 59.8795 33.963C59.1798 34.367 58.4911 34.9949 57.8351 35.8247L57.5454 36.1905L57.9117 36.4799L59.5679 37.7738L59.9177 38.0468L60.2074 37.7083C60.6447 37.2006 61.0383 36.8293 61.3717 36.6055C61.727 36.3707 62.1315 36.2506 62.5688 36.2506C63.0334 36.2506 63.4161 36.3762 63.6948 36.6328C63.9736 36.8839 64.1103 37.2279 64.1103 37.6865C64.1103 38.1396 63.9627 38.5655 63.6675 38.9422C63.3505 39.3517 62.7765 39.8813 61.9238 40.5692L57.6438 43.9706L57.4689 44.1126V44.3364V46.1982V46.6623H57.9335H67.1713H67.6359V46.1982V44.26V43.7959H67.1713H62.3611L63.9627 42.6002C64.8427 41.9451 65.5096 41.3936 65.9524 40.9732C66.4061 40.5365 66.7832 40.0287 67.0675 39.4554C67.3572 38.8767 67.5048 38.2161 67.5048 37.4899C67.5048 36.2124 67.0729 35.2132 66.1874 34.438C65.3238 33.6791 64.1704 33.2969 62.7601 33.2969Z" fill="#005BAA"/>
<path d="M79.1149 33.843V35.601L75.1191 38.9369L75.9992 39.0297C78.2348 39.401 79.3171 40.4984 79.3171 42.3929C79.3171 43.5558 78.9235 44.4785 78.1091 45.2156C77.3001 45.9472 76.1959 46.3184 74.8294 46.3184C72.8616 46.3184 71.26 45.6687 70.052 44.3857L71.7793 42.9498C72.6976 43.8397 73.7362 44.2929 74.8677 44.2929C75.4744 44.2929 75.9773 44.1291 76.3654 43.8124C76.7644 43.4794 76.9667 43.0317 76.9667 42.4748C76.9667 41.8688 76.6988 41.3938 76.1795 41.0717C75.6931 40.7714 75.0098 40.6185 74.1571 40.6185H72.7468V38.997L76.6004 35.7812H70.7243V33.8648H79.1149M79.5795 33.3789H79.1149H70.7189H70.2542V33.843V35.7593V36.2234H70.7189H75.3159L72.4462 38.6148L72.2767 38.7567V38.9751V40.5967V41.0607H72.7413H74.1516C74.9169 41.0607 75.5181 41.1918 75.9281 41.4429C76.3162 41.6831 76.4966 42.0053 76.4966 42.453C76.4966 42.8734 76.3545 43.1955 76.0593 43.4357C75.7586 43.6869 75.3541 43.8124 74.8622 43.8124C73.8564 43.8124 72.9272 43.403 72.0963 42.6004L71.7957 42.311L71.4732 42.5785L69.7459 44.0144L69.3687 44.3311L69.7076 44.6914C71.0031 46.0728 72.7249 46.7716 74.8239 46.7716C76.3162 46.7716 77.5242 46.3621 78.4207 45.5486C79.3335 44.7187 79.7817 43.6869 79.7817 42.382C79.7817 40.3073 78.5901 39.0297 76.2451 38.5929L79.41 35.9559L79.5795 35.8139V35.5956V33.8375V33.3789Z" fill="#005BAA"/>
<defs>
<linearGradient id="paint0_linear_280_60" x1="60.4477" y1="23.4769" x2="76.9374" y2="23.4769" gradientUnits="userSpaceOnUse">
<stop stop-color="#005BAA"/>
<stop offset="0.9968" stop-color="#005BAA" stop-opacity="0"/>
</linearGradient>
</defs>
</svg>
